<svg width="792" preserveAspectRatio="none" viewBox="0 0 792 1284" fill="none" xmlns="http://www.w3.org/2000/svg">
<path d="M256.333 1215C256.333 1216.47 257.527 1217.67 259 1217.67C260.473 1217.67 261.667 1216.47 261.667 1215C261.667 1213.53 260.473 1212.33 259 1212.33C257.527 1212.33 256.333 1213.53 256.333 1215ZM0.5 0C0.5 2.47183 0.539676 4.89276 0.618455 7.26375L1.6179 7.23054C1.5395 4.87099 1.5 2.46113 1.5 0H0.5ZM1.55579 20.898C2.07915 25.7855 2.79422 30.4305 3.69455 34.8436L4.67437 34.6437C3.78077 30.2636 3.07035 25.6499 2.5501 20.7915L1.55579 20.898ZM7.22646 48.2667C8.7257 52.8287 10.4656 57.0929 12.436 61.0758L13.3323 60.6323C11.384 56.6942 9.66175 52.474 8.17648 47.9545L7.22646 48.2667ZM19.5787 72.9677C22.3492 76.8021 25.3985 80.2987 28.711 83.4817L29.4038 82.7607C26.1344 79.619 23.1246 76.1677 20.3892 72.382L19.5787 72.9677ZM39.5841 92.2224C43.3888 94.7767 47.4363 97.0447 51.7108 99.0506L52.1357 98.1453C47.9038 96.1594 43.901 93.9161 40.1414 91.3922L39.5841 92.2224ZM64.6307 104.123C68.9208 105.517 73.3882 106.711 78.0212 107.725L78.235 106.749C73.631 105.741 69.1956 104.555 64.9397 103.172L64.6307 104.123ZM91.6975 110.148C96.1935 110.773 100.818 111.264 105.563 111.634L105.64 110.637C100.914 110.268 96.3094 109.78 91.8354 109.157L91.6975 110.148ZM119.48 112.374C123.987 112.511 128.587 112.56 133.273 112.529L133.267 111.529C128.592 111.559 124.004 111.511 119.51 111.374L119.48 112.374ZM147.171 112.229C151.749 112.065 156.398 111.841 161.113 111.564L161.054 110.566C156.346 110.842 151.705 111.066 147.135 111.229L147.171 112.229ZM174.867 110.63C179.437 110.28 184.061 109.892 188.734 109.471L188.644 108.475C183.975 108.896 179.355 109.284 174.791 109.632L174.867 110.63ZM202.544 108.156C207.096 107.701 211.688 107.223 216.318 106.729L216.212 105.735C211.584 106.229 206.993 106.706 202.445 107.161L202.544 108.156ZM230.176 105.219C234.719 104.716 239.294 104.204 243.895 103.688L243.784 102.694C239.182 103.21 234.609 103.723 230.066 104.226L230.176 105.219ZM257.713 102.141C262.278 101.633 266.866 101.126 271.474 100.627L271.367 99.6332C266.757 100.132 262.168 100.639 257.603 101.147L257.713 102.141ZM285.273 99.1658C289.858 98.6928 294.458 98.2321 299.071 97.789L298.975 96.7935C294.359 97.237 289.757 97.6979 285.171 98.1711L285.273 99.1658ZM312.875 96.5234C317.474 96.1234 322.083 95.7458 326.698 95.3956L326.622 94.3985C322.004 94.7489 317.391 95.1269 312.788 95.5271L312.875 96.5234ZM340.524 94.4346C345.135 94.1451 349.748 93.8879 354.362 93.6681L354.314 92.6692C349.695 92.8893 345.077 93.1468 340.462 93.4366L340.524 94.4346ZM368.216 93.1252C372.837 92.9849 377.454 92.8872 382.064 92.8371L382.054 91.8372C377.436 91.8873 372.813 91.9851 368.186 92.1256L368.216 93.1252ZM395.929 92.8356C400.556 92.8867 405.173 92.9913 409.777 93.1545L409.812 92.1551C405.2 91.9916 400.575 91.8868 395.94 91.8357L395.929 92.8356ZM423.613 93.8296C428.236 94.1189 432.843 94.4735 437.429 94.8987L437.521 93.903C432.925 93.4769 428.308 93.1215 423.676 92.8315L423.613 93.8296ZM451.18 96.3981C455.78 96.9774 460.356 97.6346 464.904 98.3751L465.065 97.3881C460.504 96.6456 455.916 95.9867 451.305 95.4059L451.18 96.3981ZM478.496 100.859C483.037 101.783 487.547 102.797 492.022 103.908L492.263 102.938C487.774 101.823 483.25 100.805 478.695 99.8789L478.496 100.859ZM505.362 107.545C509.791 108.865 514.181 110.288 518.527 111.82L518.86 110.877C514.497 109.339 510.092 107.911 505.648 106.587L505.362 107.545ZM531.444 116.755C535.706 118.515 539.921 120.39 544.086 122.387L544.519 121.485C540.336 119.48 536.104 117.598 531.825 115.831L531.444 116.755ZM556.361 128.712C560.391 130.938 564.367 133.29 568.286 135.773L568.821 134.928C564.885 132.434 560.891 130.072 556.845 127.836L556.361 128.712ZM579.702 143.498C583.417 146.18 587.075 148.993 590.672 151.941L591.306 151.168C587.693 148.207 584.019 145.382 580.288 142.688L579.702 143.498ZM601.082 161.016C602.786 162.595 604.476 164.208 606.149 165.856L606.851 165.144C605.17 163.489 603.473 161.868 601.761 160.282L601.082 161.016ZM606.149 165.856C607.738 167.421 609.317 169.024 610.887 170.665L611.609 169.974C610.033 168.326 608.447 166.715 606.851 165.144L606.149 165.856ZM620.187 180.961C623.129 184.403 626.035 187.979 628.905 191.687L629.696 191.074C626.816 187.355 623.9 183.766 620.947 180.311L620.187 180.961ZM637.162 202.85C639.788 206.563 642.383 210.386 644.945 214.316L645.783 213.77C643.214 209.83 640.612 205.996 637.978 202.273L637.162 202.85ZM652.3 226.036C654.674 229.962 657.018 233.981 659.334 238.09L660.205 237.599C657.885 233.482 655.535 229.454 653.156 225.519L652.3 226.036ZM665.918 250.163C668.085 254.268 670.226 258.453 672.339 262.714L673.235 262.27C671.118 258.001 668.974 253.809 666.802 249.696L665.918 250.163ZM678.266 275.015C680.216 279.182 682.143 283.415 684.044 287.711L684.959 287.306C683.054 283.004 681.125 278.764 679.171 274.591L678.266 275.015ZM689.534 300.45C691.298 304.655 693.041 308.915 694.761 313.229L695.689 312.859C693.967 308.54 692.223 304.274 690.456 300.063L689.534 300.45ZM699.853 326.328C701.462 330.57 703.049 334.858 704.616 339.193L705.557 338.853C703.988 334.514 702.398 330.22 700.788 325.973L699.853 326.328ZM709.242 352.292C710.751 356.664 712.239 361.079 713.706 365.534L714.656 365.221C713.187 360.762 711.698 356.343 710.188 351.966L709.242 352.292ZM717.926 378.629C719.313 383.031 720.681 387.469 722.029 391.943L722.987 391.654C721.637 387.177 720.268 382.735 718.879 378.328L717.926 378.629ZM725.964 405.283C727.233 409.68 728.484 414.107 729.716 418.564L730.68 418.297C729.447 413.837 728.195 409.406 726.925 405.006L725.964 405.283ZM733.359 432.022C734.539 436.474 735.701 440.953 736.845 445.458L737.814 445.212C736.669 440.704 735.507 436.221 734.326 431.766L733.359 432.022ZM740.181 458.873C741.275 463.369 742.353 467.888 743.412 472.429L744.386 472.202C743.326 467.657 742.248 463.135 741.152 458.636L740.181 458.873ZM746.504 485.959C747.507 490.444 748.493 494.949 749.463 499.473L750.441 499.263C749.47 494.737 748.483 490.229 747.479 485.741L746.504 485.959ZM752.322 513.098C753.25 517.62 754.162 522.159 755.057 526.713L756.039 526.521C755.143 521.963 754.23 517.422 753.301 512.897L752.322 513.098ZM757.672 540.305C758.527 544.85 759.365 549.41 760.188 553.982L761.172 553.805C760.349 549.23 759.51 544.668 758.654 540.12L757.672 540.305ZM762.595 567.67C763.375 572.211 764.139 576.764 764.888 581.327L765.875 581.165C765.126 576.599 764.361 572.044 763.58 567.5L762.595 567.67ZM767.084 595.044C767.799 599.616 768.498 604.198 769.181 608.787L770.17 608.64C769.487 604.048 768.788 599.464 768.072 594.889L767.084 595.044ZM771.17 622.502C771.817 627.08 772.449 631.665 773.064 636.254L774.055 636.121C773.44 631.529 772.808 626.943 772.16 622.362L771.17 622.502ZM774.862 650.033C775.444 654.62 776.01 659.21 776.56 663.803L777.552 663.684C777.002 659.089 776.436 654.496 775.854 649.908L774.862 650.033ZM778.162 677.589C778.68 682.186 779.182 686.784 779.668 691.383L780.663 691.278C780.176 686.677 779.674 682.076 779.156 677.477L778.162 677.589ZM781.081 705.205C781.536 709.813 781.975 714.419 782.398 719.024L783.393 718.933C782.97 714.326 782.531 709.717 782.076 705.107L781.081 705.205ZM783.617 732.83C784.01 737.453 784.386 742.073 784.745 746.688L785.742 746.61C785.382 741.993 785.006 737.371 784.614 732.745L783.617 732.83ZM785.777 760.54C786.104 765.152 786.415 769.758 786.709 774.357L787.707 774.293C787.413 769.691 787.102 765.083 786.774 760.469L785.777 760.54ZM787.549 788.233C787.813 792.87 788.06 797.498 788.29 802.117L789.289 802.067C789.059 797.446 788.811 792.815 788.547 788.176L787.549 788.233ZM788.93 815.943C789.128 820.582 789.309 825.209 789.472 829.825L790.472 829.789C790.308 825.172 790.127 820.541 789.929 815.9L788.93 815.943ZM789.914 843.738C790.043 848.362 790.155 852.972 790.249 857.567L791.249 857.546C791.155 852.949 791.043 848.336 790.913 843.71L789.914 843.738ZM790.48 871.449C790.54 876.112 790.581 880.757 790.604 885.384L791.604 885.379C791.581 880.75 791.54 876.102 791.48 871.436L790.48 871.449ZM790.616 899.205C790.601 903.855 790.568 908.485 790.515 913.092L791.515 913.103C791.568 908.493 791.601 903.861 791.616 899.208L790.616 899.205ZM790.295 927.033C790.202 931.656 790.089 936.254 789.957 940.827L790.957 940.856C791.089 936.28 791.202 931.679 791.295 927.053L790.295 927.033ZM789.49 954.735C789.312 959.405 789.112 964.045 788.891 968.655L789.89 968.703C790.111 964.09 790.311 959.446 790.49 954.773L789.49 954.735ZM788.165 982.389C787.894 987.077 787.6 991.73 787.283 996.346L788.281 996.414C788.598 991.795 788.892 987.138 789.164 982.447L788.165 982.389ZM786.256 1010.2C785.889 1014.8 785.499 1019.35 785.086 1023.87L786.081 1023.96C786.495 1019.44 786.885 1014.88 787.253 1010.28L786.256 1010.2ZM783.715 1037.87C783.233 1042.49 782.725 1047.06 782.192 1051.58L783.185 1051.7C783.719 1047.17 784.227 1042.59 784.71 1037.97L783.715 1037.87ZM780.468 1065.36C779.85 1070.02 779.203 1074.63 778.528 1079.17L779.517 1079.32C780.193 1074.77 780.841 1070.16 781.459 1065.49L780.468 1065.36ZM776.41 1092.67C775.631 1097.37 774.819 1102.01 773.974 1106.57L774.958 1106.75C775.803 1102.18 776.616 1097.54 777.397 1092.83L776.41 1092.67ZM771.344 1120.02C770.383 1124.68 769.386 1129.25 768.353 1133.73L769.328 1133.95C770.363 1129.46 771.361 1124.89 772.323 1120.23L771.344 1120.02ZM765.087 1147.11C763.901 1151.71 762.674 1156.19 761.404 1160.57L762.365 1160.85C763.637 1156.46 764.867 1151.97 766.055 1147.36L765.087 1147.11ZM757.342 1173.74C755.856 1178.28 754.319 1182.68 752.731 1186.93L753.668 1187.28C755.261 1183.01 756.802 1178.6 758.293 1174.05L757.342 1173.74ZM747.651 1199.62C745.741 1204.07 743.766 1208.32 741.727 1212.37L742.62 1212.82C744.669 1208.75 746.652 1204.48 748.57 1200.01L747.651 1199.62ZM735.133 1224.38C732.661 1228.49 730.106 1232.33 727.468 1235.88L728.271 1236.48C730.93 1232.9 733.503 1229.03 735.99 1224.89L735.133 1224.38ZM718.494 1246.51C716.912 1248.15 715.304 1249.68 713.669 1251.12L714.331 1251.88C715.986 1250.42 717.613 1248.86 719.212 1247.21L718.494 1246.51ZM713.669 1251.12C711.931 1252.66 710.163 1254.13 708.365 1255.53L708.982 1256.32C710.795 1254.9 712.578 1253.42 714.331 1251.88L713.669 1251.12ZM697.168 1263.29C693.265 1265.67 689.249 1267.81 685.128 1269.72L685.548 1270.62C689.703 1268.7 693.753 1266.55 697.689 1264.15L697.168 1263.29ZM672.429 1274.77C668.142 1276.22 663.76 1277.45 659.293 1278.48L659.519 1279.46C664.016 1278.42 668.429 1277.17 672.749 1275.72L672.429 1274.77ZM645.866 1280.97C641.4 1281.6 636.861 1282.06 632.259 1282.35L632.323 1283.35C636.949 1283.06 641.513 1282.6 646.006 1281.96L645.866 1280.97ZM618.556 1282.77C614.035 1282.76 609.461 1282.61 604.844 1282.33L604.785 1283.33C609.42 1283.61 614.012 1283.76 618.554 1283.77L618.556 1282.77ZM591.237 1281.17C586.743 1280.68 582.215 1280.08 577.659 1279.38L577.507 1280.37C582.076 1281.07 586.619 1281.67 591.128 1282.17L591.237 1281.17ZM564.128 1277.04C559.672 1276.19 555.195 1275.25 550.704 1274.24L550.484 1275.22C554.985 1276.23 559.472 1277.17 563.94 1278.03L564.128 1277.04ZM537.394 1271.04C532.983 1269.91 528.563 1268.72 524.14 1267.48L523.869 1268.44C528.3 1269.69 532.727 1270.88 537.147 1272.01L537.394 1271.04ZM510.966 1263.61C506.605 1262.28 502.247 1260.91 497.895 1259.49L497.586 1260.44C501.943 1261.86 506.307 1263.24 510.674 1264.57L510.966 1263.61ZM484.878 1255.14C480.55 1253.66 476.235 1252.14 471.936 1250.61L471.599 1251.55C475.902 1253.09 480.221 1254.6 484.554 1256.09L484.878 1255.14ZM459.039 1245.9C454.729 1244.3 450.443 1242.69 446.184 1241.07L445.827 1242C450.089 1243.62 454.379 1245.24 458.691 1246.84L459.039 1245.9ZM433.395 1236.14C429.101 1234.46 424.841 1232.79 420.621 1231.12L420.254 1232.05C424.475 1233.72 428.736 1235.39 433.033 1237.07L433.395 1236.14ZM407.83 1226.05C403.527 1224.34 399.273 1222.65 395.075 1220.98L394.706 1221.91C398.904 1223.58 403.156 1225.27 407.46 1226.98L407.83 1226.05ZM382.359 1215.94C378.018 1214.24 373.746 1212.57 369.553 1210.95L369.193 1211.88C373.384 1213.5 377.653 1215.17 381.993 1216.88L382.359 1215.94ZM356.667 1206.07C352.247 1204.42 347.93 1202.86 343.727 1201.38L343.396 1202.33C347.592 1203.8 351.903 1205.36 356.318 1207L356.667 1206.07ZM330.693 1197C326.127 1195.55 321.726 1194.23 317.507 1193.09L317.245 1194.05C321.448 1195.19 325.834 1196.5 330.389 1197.96L330.693 1197ZM304.118 1189.92C299.266 1188.97 294.734 1188.34 290.555 1188.07L290.491 1189.07C294.617 1189.33 299.106 1189.96 303.926 1190.9L304.118 1189.92ZM276.682 1188.86C271.722 1189.96 267.654 1192.06 264.631 1195.36L265.368 1196.04C268.223 1192.92 272.091 1190.91 276.898 1189.84L276.682 1188.86ZM259.031 1207.9C258.679 1210.07 258.5 1212.43 258.5 1215H259.5C259.5 1212.48 259.676 1210.17 260.018 1208.06L259.031 1207.9Z" fill="#7B8BFF"/>
</svg>
