<svg  viewBox="0 0 133 904" width="133" preserveAspectRatio="none" fill="none" xmlns="http://www.w3.org/2000/svg">
<path d="M0.999948 446.5L1.49994 446.503L0.999948 446.5ZM117.333 900.5C117.333 901.973 118.527 903.167 120 903.167C121.473 903.167 122.667 901.973 122.667 900.5C122.667 899.027 121.473 897.833 120 897.833C118.527 897.833 117.333 899.027 117.333 900.5ZM120.351 900.144C118.813 898.63 117.224 896.947 115.59 895.095L114.84 895.757C116.488 897.624 118.093 899.325 119.649 900.856L120.351 900.144ZM106.861 884.155C104.287 880.636 101.641 876.771 98.9395 872.565L98.0981 873.105C100.809 877.326 103.467 881.209 106.054 884.745L106.861 884.155ZM91.6681 860.631C89.418 856.75 87.143 852.651 84.8526 848.338L83.9694 848.807C86.2654 853.131 88.5464 857.241 90.8029 861.133L91.6681 860.631ZM78.4645 835.82C76.4709 831.759 74.4724 827.541 72.4751 823.169L71.5655 823.584C73.5665 827.965 75.569 832.191 77.5669 836.261L78.4645 835.82ZM66.812 810.339C65.0197 806.137 63.233 801.813 61.4566 797.366L60.5279 797.737C62.3072 802.191 64.0968 806.523 65.8922 810.731L66.812 810.339ZM56.3914 784.274C54.7814 779.977 53.1835 775.578 51.6013 771.079L50.6579 771.411C52.2423 775.916 53.8425 780.321 55.455 784.625L56.3914 784.274ZM47.0727 757.791C45.6291 753.419 44.202 748.96 42.7943 744.417L41.8391 744.713C43.2487 749.262 44.6776 753.726 46.1232 758.105L47.0727 757.791ZM38.756 730.963C37.4668 726.526 36.1971 722.015 34.9494 717.431L33.9845 717.693C35.2337 722.284 36.5049 726.8 37.7957 731.242L38.756 730.963ZM31.3674 703.823C30.2303 699.354 29.1148 694.82 28.023 690.222L27.05 690.453C28.1431 695.056 29.2598 699.596 30.3983 704.07L31.3674 703.823ZM24.8918 676.56C23.8933 672.041 22.9181 667.465 21.968 662.831L20.9884 663.032C21.9395 667.671 22.9157 672.252 23.9154 676.776L24.8918 676.56ZM19.2475 649.035C18.3834 644.474 17.5441 639.861 16.7312 635.195L15.746 635.367C16.5598 640.037 17.4 644.655 18.265 649.221L19.2475 649.035ZM14.4274 621.387C13.6974 616.81 12.993 612.185 12.3157 607.513L11.3261 607.657C12.0041 612.333 12.7091 616.962 13.4399 621.544L14.4274 621.387ZM10.3944 593.574C9.79303 588.974 9.21816 584.331 8.67099 579.646L7.67774 579.762C8.22544 584.452 8.80088 589.099 9.40282 593.704L10.3944 593.574ZM7.13996 565.716C6.66314 561.09 6.21352 556.424 5.79224 551.719L4.79622 551.808C5.21791 556.518 5.66795 561.188 6.14523 565.818L7.13996 565.716ZM4.63184 537.715C4.27959 533.093 3.95484 528.435 3.65861 523.741L2.66059 523.804C2.9571 528.502 3.28215 533.165 3.63473 537.791L4.63184 537.715ZM2.86386 509.699C2.63119 505.056 2.42655 500.38 2.25087 495.671L1.25156 495.708C1.42741 500.422 1.63223 505.102 1.86511 509.749L2.86386 509.699ZM1.81697 481.661C1.70201 476.999 1.61554 472.306 1.55843 467.581L0.558504 467.593C0.615667 472.322 0.702216 477.02 0.817276 481.686L1.81697 481.661ZM1.47594 453.574C1.47662 451.224 1.48459 448.868 1.49994 446.503L0.499959 446.497C0.484593 448.863 0.476621 451.222 0.475939 453.574L1.47594 453.574ZM1.49994 446.503C1.51559 444.092 1.53487 441.695 1.55773 439.311L0.55778 439.301C0.534905 441.686 0.515623 444.085 0.499959 446.497L1.49994 446.503ZM1.73783 425.169C1.81385 420.398 1.90472 415.684 2.01022 411.025L1.01048 411.002C0.904923 415.664 0.814013 420.38 0.737957 425.153L1.73783 425.169ZM2.37958 396.904C2.52178 392.122 2.67993 387.4 2.85378 382.738L1.85448 382.701C1.68053 387.366 1.5223 392.09 1.38002 396.874L2.37958 396.904ZM3.43361 368.675C3.65085 363.875 3.88535 359.14 4.1368 354.47L3.13824 354.416C2.88664 359.089 2.652 363.827 2.43463 368.63L3.43361 368.675ZM4.95234 340.48C5.25485 335.667 5.57608 330.926 5.91567 326.253L4.9183 326.181C4.57847 330.856 4.25702 335.601 3.95431 340.417L4.95234 340.48ZM7.01078 312.184C7.40606 307.428 7.82118 302.747 8.25573 298.14L7.26015 298.046C6.82525 302.657 6.4098 307.341 6.01422 312.101L7.01078 312.184ZM9.67485 283.997C10.1809 279.246 10.7086 274.578 11.2574 269.99L10.2644 269.871C9.71511 274.463 9.18697 279.136 8.68048 283.891L9.67485 283.997ZM13.0278 256.007C13.6676 251.225 14.3314 246.536 15.0188 241.936L14.0298 241.788C13.3417 246.393 12.6771 251.088 12.0366 255.874L13.0278 256.007ZM17.2227 227.969C18.0092 223.243 18.8218 218.617 19.6598 214.087L18.6765 213.906C17.8374 218.441 17.0237 223.073 16.2363 227.805L17.2227 227.969ZM22.3549 200.273C23.3276 195.54 24.3296 190.919 25.36 186.407L24.3851 186.185C23.353 190.704 22.3495 195.332 21.3754 200.072L22.3549 200.273ZM28.6753 172.643C29.8623 167.966 31.0818 163.415 32.3326 158.983L31.3702 158.712C30.117 163.152 28.8952 167.712 27.7061 172.397L28.6753 172.643ZM36.3669 145.441C37.8141 140.835 39.2976 136.369 40.8157 132.036L39.8719 131.705C38.3502 136.049 36.8633 140.525 35.4129 145.141L36.3669 145.441ZM45.7184 118.801C47.4778 114.306 49.2773 109.967 51.1147 105.776L50.1988 105.374C48.356 109.578 46.5513 113.93 44.7872 118.436L45.7184 118.801ZM57.0619 92.9742C59.2034 88.6234 61.3892 84.4455 63.6161 80.4287L62.7416 79.9439C60.5066 83.9752 58.3133 88.1675 56.1647 92.5326L57.0619 92.9742ZM70.7787 68.2696C73.3361 64.183 75.9398 60.2785 78.5853 56.5399L77.769 55.9623C75.1125 59.7163 72.4984 63.6366 69.931 67.7392L70.7787 68.2696ZM87.0898 45.2473C90.0934 41.4983 93.1425 37.9298 96.231 34.5203L95.4899 33.8489C92.3881 37.2731 89.3259 40.857 86.3093 44.622L87.0898 45.2473ZM106.022 24.3432C109.438 20.9962 112.893 17.8083 116.381 14.7527L115.722 14.0005C112.221 17.0676 108.752 20.2681 105.322 23.6289L106.022 24.3432ZM127.225 5.72383C129.078 4.25468 130.937 2.81409 132.802 1.39825L132.198 0.601751C130.327 2.02158 128.462 3.46649 126.604 4.9403L127.225 5.72383Z" fill="#30AA33"/>
</svg>
