<svg width="216" preserveAspectRatio="none" viewBox="0 0 216 2173" fill="none" xmlns="http://www.w3.org/2000/svg">
<path d="M191 1793L190.51 1793.1L191 1793ZM72.8333 2169.5C72.8333 2170.97 74.0272 2172.17 75.5 2172.17C76.9728 2172.17 78.1667 2170.97 78.1667 2169.5C78.1667 2168.03 76.9728 2166.83 75.5 2166.83C74.0272 2166.83 72.8333 2168.03 72.8333 2169.5ZM0.71899 0.913562C2.62043 2.20556 4.5103 3.53262 6.38847 4.89416L6.9754 4.08452C5.08913 2.71711 3.19096 1.38423 1.28101 0.0864381L0.71899 0.913562ZM17.408 13.3845C20.9648 16.2899 24.4764 19.3212 27.9421 22.4744L28.6151 21.7348C25.1367 18.57 21.6116 15.527 18.0406 12.61L17.408 13.3845ZM37.9988 32.0932C41.2399 35.3473 44.4377 38.7102 47.5913 42.1781L48.3311 41.5053C45.1676 38.0265 41.9594 34.6527 38.7074 31.3875L37.9988 32.0932ZM56.7358 52.674C59.6825 56.2012 62.5876 59.8221 65.4504 63.5335L66.2422 62.9228C63.3717 59.2013 60.4585 55.5703 57.5033 52.0329L56.7358 52.674ZM73.7538 74.7155C76.4308 78.4586 79.068 82.2826 81.6645 86.1848L82.4971 85.6309C79.8944 81.7195 77.2509 77.8862 74.5672 74.1338L73.7538 74.7155ZM89.2005 97.9111C91.6311 101.826 94.0234 105.812 96.3766 109.865L97.2414 109.363C94.8833 105.301 92.486 101.307 90.05 97.3836L89.2005 97.9111ZM103.192 121.991C105.392 126.035 107.555 130.14 109.681 134.304L110.571 133.849C108.442 129.678 106.275 125.565 104.07 121.513L103.192 121.991ZM115.857 146.786C117.853 150.945 119.812 155.158 121.734 159.422L122.646 159.011C120.72 154.74 118.758 150.52 116.759 146.353L115.857 146.786ZM127.322 172.2C129.125 176.452 130.893 180.749 132.625 185.091L133.554 184.721C131.819 180.372 130.049 176.068 128.243 171.81L127.322 172.2ZM137.647 198.069C139.269 202.392 140.857 206.755 142.41 211.157L143.353 210.825C141.797 206.417 140.207 202.047 138.583 197.717L137.647 198.069ZM146.921 224.348C148.378 228.742 149.8 233.171 151.188 237.633L152.143 237.336C150.753 232.868 149.329 228.433 147.871 224.034L146.921 224.348ZM155.202 250.96C156.496 255.398 157.757 259.867 158.984 264.364L159.948 264.101C158.72 259.598 157.458 255.124 156.162 250.68L155.202 250.96ZM162.538 277.844C163.681 282.334 164.791 286.851 165.868 291.393L166.841 291.162C165.763 286.615 164.652 282.093 163.507 277.597L162.538 277.844ZM168.969 304.963C169.964 309.484 170.927 314.027 171.855 318.592L172.835 318.392C171.905 313.823 170.942 309.274 169.946 304.748L168.969 304.963ZM174.529 332.277C175.382 336.832 176.202 341.406 176.99 345.998L177.975 345.83C177.187 341.232 176.366 336.653 175.512 332.092L174.529 332.277ZM179.238 359.742C179.952 364.322 180.633 368.918 181.281 373.529L182.271 373.389C181.623 368.774 180.941 364.173 180.226 359.588L179.238 359.742ZM183.119 387.353C183.695 391.951 184.239 396.563 184.749 401.186L185.743 401.076C185.232 396.448 184.688 391.832 184.111 387.228L183.119 387.353ZM186.177 415.047C186.619 419.666 187.027 424.296 187.402 428.934L188.399 428.853C188.023 424.21 187.614 419.576 187.172 414.951L186.177 415.047ZM188.423 442.832C188.73 447.462 189.003 452.099 189.242 456.741L190.24 456.69C190.001 452.043 189.728 447.401 189.421 442.766L188.423 442.832ZM189.857 470.666C190.028 475.306 190.165 479.951 190.268 484.598L191.268 484.576C191.165 479.923 191.027 475.274 190.856 470.629L189.857 470.666ZM190.474 498.53C190.491 500.853 190.5 503.177 190.5 505.5H191.5C191.5 503.174 191.491 500.848 191.474 498.523L190.474 498.53ZM190.5 505.5C190.5 507.79 190.496 510.09 190.489 512.401L191.489 512.404C191.496 510.092 191.5 507.791 191.5 505.5H190.5ZM190.403 526.39C190.36 531.055 190.304 535.761 190.235 540.506L191.235 540.52C191.304 535.774 191.36 531.066 191.403 526.399L190.403 526.39ZM189.999 554.427C189.908 559.103 189.805 563.816 189.692 568.563L190.691 568.587C190.805 563.838 190.908 559.124 190.998 554.446L189.999 554.427ZM189.33 582.489C189.199 587.138 189.059 591.819 188.91 596.531L189.909 596.562C190.059 591.849 190.199 587.167 190.329 582.517L189.33 582.489ZM188.44 610.583C188.278 615.206 188.107 619.857 187.928 624.536L188.927 624.574C189.106 619.894 189.277 615.242 189.439 610.618L188.44 610.583ZM187.369 638.654C187.179 643.272 186.983 647.916 186.779 652.584L187.778 652.628C187.982 647.959 188.178 643.314 188.368 638.695L187.369 638.654ZM186.152 666.604C185.938 671.271 185.718 675.963 185.492 680.677L186.491 680.725C186.717 676.01 186.937 671.318 187.151 666.65L186.152 666.604ZM184.811 694.609C184.579 699.274 184.341 703.962 184.099 708.67L185.097 708.721C185.34 704.012 185.577 699.325 185.81 694.659L184.811 694.609ZM183.367 722.668C183.122 727.306 182.872 731.963 182.618 736.639L183.616 736.693C183.87 732.017 184.12 727.359 184.366 722.721L183.367 722.668ZM181.845 750.723C181.588 755.355 181.328 760.004 181.064 764.671L182.063 764.727C182.326 760.06 182.586 755.411 182.843 750.779L181.845 750.723ZM180.268 778.667C180 783.347 179.729 788.044 179.456 792.756L180.454 792.814C180.728 788.102 180.999 783.405 181.267 778.724L180.268 778.667ZM178.644 806.679C178.372 811.334 178.097 816.005 177.821 820.689L178.819 820.748C179.095 816.064 179.37 811.393 179.643 806.737L178.644 806.679ZM176.989 834.747C176.714 839.381 176.438 844.029 176.16 848.689L177.159 848.748C177.436 844.088 177.712 839.441 177.987 834.806L176.989 834.747ZM175.326 862.707C175.047 867.375 174.768 872.054 174.489 876.746L175.487 876.805C175.767 872.114 176.046 867.434 176.324 862.767L175.326 862.707ZM173.659 890.701C173.382 895.364 173.104 900.038 172.827 904.722L173.825 904.781C174.103 900.097 174.38 895.423 174.657 890.76L173.659 890.701ZM171.999 918.751C171.726 923.396 171.453 928.051 171.181 932.716L172.179 932.774C172.452 928.11 172.725 923.455 172.998 918.809L171.999 918.751ZM170.366 946.737C170.097 951.403 169.828 956.079 169.56 960.762L170.558 960.819C170.826 956.136 171.095 951.461 171.365 946.795L170.366 946.737ZM168.766 974.735C168.503 979.401 168.241 984.074 167.981 988.755L168.979 988.811C169.239 984.13 169.501 979.457 169.765 974.792L168.766 974.735ZM167.207 1002.78C166.953 1007.43 166.701 1012.09 166.45 1016.76L167.449 1016.81C167.699 1012.15 167.952 1007.49 168.206 1002.84L167.207 1002.78ZM165.706 1030.78C165.461 1035.45 165.218 1040.13 164.977 1044.81L165.976 1044.86C166.216 1040.18 166.459 1035.5 166.704 1030.83L165.706 1030.78ZM164.268 1058.79C164.035 1063.46 163.804 1068.13 163.576 1072.81L164.575 1072.86C164.803 1068.18 165.033 1063.51 165.267 1058.84L164.268 1058.79ZM162.904 1086.84C162.684 1091.5 162.467 1096.17 162.254 1100.84L163.253 1100.88C163.466 1096.21 163.683 1091.55 163.903 1086.89L162.904 1086.84ZM161.626 1114.85C161.42 1119.53 161.218 1124.2 161.021 1128.88L162.02 1128.93C162.217 1124.25 162.419 1119.57 162.625 1114.9L161.626 1114.85ZM160.442 1142.89C160.253 1147.56 160.068 1152.23 159.888 1156.91L160.887 1156.94C161.067 1152.27 161.252 1147.6 161.441 1142.93L160.442 1142.89ZM159.362 1170.94C159.192 1175.6 159.026 1180.28 158.865 1184.95L159.865 1184.98C160.025 1180.31 160.191 1175.64 160.361 1170.97L159.362 1170.94ZM158.398 1198.97C158.248 1203.64 158.102 1208.32 157.963 1212.99L158.962 1213.02C159.102 1208.35 159.247 1203.67 159.398 1199L158.398 1198.97ZM157.56 1227.02C157.431 1231.69 157.308 1236.37 157.191 1241.04L158.191 1241.07C158.308 1236.39 158.431 1231.72 158.559 1227.05L157.56 1227.02ZM156.858 1255.06C156.753 1259.74 156.654 1264.42 156.562 1269.1L157.562 1269.11C157.654 1264.44 157.753 1259.76 157.858 1255.09L156.858 1255.06ZM156.304 1283.12C156.225 1287.8 156.152 1292.47 156.087 1297.14L157.086 1297.16C157.152 1292.49 157.225 1287.81 157.304 1283.14L156.304 1283.12ZM155.91 1311.18C155.858 1315.86 155.814 1320.54 155.776 1325.21L156.776 1325.22C156.814 1320.55 156.858 1315.87 156.91 1311.19L155.91 1311.18ZM155.688 1339.23C155.665 1343.91 155.651 1348.59 155.645 1353.27L156.645 1353.27C156.651 1348.59 156.665 1343.91 156.688 1339.23L155.688 1339.23ZM155.65 1367.3C155.659 1371.98 155.678 1376.65 155.704 1381.32L156.704 1381.31C156.678 1376.65 156.659 1371.98 156.65 1367.3L155.65 1367.3ZM155.81 1395.35C155.854 1400.04 155.907 1404.72 155.969 1409.4L156.969 1409.38C156.907 1404.71 156.854 1400.03 156.81 1395.34L155.81 1395.35ZM156.182 1423.41C156.263 1428.09 156.353 1432.76 156.453 1437.44L157.453 1437.41C157.353 1432.74 157.263 1428.07 157.182 1423.39L156.182 1423.41ZM156.783 1451.48C156.903 1456.16 157.033 1460.82 157.173 1465.49L158.173 1465.46C158.033 1460.8 157.903 1456.13 157.783 1451.45L156.783 1451.48ZM157.627 1479.51C157.789 1484.2 157.963 1488.88 158.147 1493.55L159.146 1493.51C158.962 1488.84 158.789 1484.16 158.626 1479.47L157.627 1479.51ZM158.733 1507.55C158.94 1512.23 159.159 1516.9 159.389 1521.56L160.388 1521.51C160.158 1516.85 159.939 1512.18 159.732 1507.5L158.733 1507.55ZM160.12 1535.6C160.375 1540.27 160.642 1544.93 160.922 1549.58L161.92 1549.52C161.641 1544.87 161.373 1540.21 161.118 1535.54L160.12 1535.6ZM161.804 1563.58C162.112 1568.27 162.434 1572.95 162.768 1577.61L163.766 1577.54C163.431 1572.88 163.11 1568.2 162.802 1563.52L161.804 1563.58ZM163.811 1591.57C164.175 1596.25 164.552 1600.91 164.944 1605.56L165.94 1605.48C165.549 1600.83 165.172 1596.17 164.808 1591.49L163.811 1591.57ZM166.168 1619.57C166.59 1624.22 167.027 1628.87 167.478 1633.5L168.473 1633.4C168.022 1628.77 167.586 1624.13 167.164 1619.48L166.168 1619.57ZM168.891 1647.48C169.379 1652.15 169.883 1656.81 170.403 1661.45L171.397 1661.34C170.877 1656.7 170.374 1652.04 169.885 1647.37L168.891 1647.48ZM172.011 1675.33C172.57 1680 173.145 1684.66 173.737 1689.3L174.729 1689.17C174.137 1684.54 173.562 1679.88 173.004 1675.21L172.011 1675.33ZM175.572 1703.22C176.201 1707.85 176.847 1712.45 177.51 1717.04L178.5 1716.9C177.837 1712.31 177.191 1707.71 176.563 1703.09L175.572 1703.22ZM179.591 1731C180.303 1735.63 181.034 1740.25 181.784 1744.85L182.771 1744.69C182.022 1740.09 181.291 1735.48 180.579 1730.84L179.591 1731ZM184.1 1758.64C184.904 1763.29 185.728 1767.91 186.572 1772.52L187.556 1772.34C186.712 1767.74 185.889 1763.11 185.086 1758.47L184.1 1758.64ZM189.166 1786.27C189.609 1788.55 190.057 1790.83 190.51 1793.1L191.49 1792.9C191.038 1790.63 190.59 1788.36 190.148 1786.08L189.166 1786.27ZM190.51 1793.1C190.985 1795.48 191.455 1797.85 191.918 1800.22L192.899 1800.02C192.436 1797.66 191.966 1795.29 191.49 1792.9L190.51 1793.1ZM194.624 1814.28C195.525 1819.05 196.4 1823.79 197.247 1828.48L198.231 1828.3C197.383 1823.61 196.508 1818.87 195.607 1814.09L194.624 1814.28ZM199.741 1842.64C200.557 1847.39 201.343 1852.09 202.099 1856.75L203.086 1856.59C202.33 1851.93 201.543 1847.22 200.727 1842.47L199.741 1842.64ZM204.338 1871.02C205.064 1875.82 205.756 1880.56 206.413 1885.26L207.403 1885.12C206.746 1880.42 206.054 1875.67 205.326 1870.87L204.338 1871.02ZM208.312 1899.47C208.923 1904.28 209.493 1909.03 210.023 1913.73L211.017 1913.62C210.487 1908.92 209.915 1904.16 209.304 1899.35L208.312 1899.47ZM211.531 1928.07C212.001 1932.91 212.423 1937.69 212.798 1942.4L213.795 1942.32C213.42 1937.6 212.996 1932.82 212.526 1927.97L211.531 1928.07ZM213.798 1956.73C214.088 1961.58 214.322 1966.35 214.498 1971.06L215.498 1971.02C215.321 1966.31 215.086 1961.53 214.796 1956.67L213.798 1956.73ZM214.86 1985.39C214.921 1990.27 214.914 1995.06 214.837 1999.76L215.837 1999.77C215.914 1995.06 215.921 1990.26 215.86 1985.38L214.86 1985.39ZM214.368 2014.13C214.125 2019.01 213.799 2023.79 213.386 2028.46L214.383 2028.55C214.796 2023.87 215.124 2019.08 215.367 2014.18L214.368 2014.13ZM211.811 2042.73C211.162 2047.58 210.407 2052.3 209.544 2056.88L210.527 2057.07C211.393 2052.46 212.151 2047.73 212.802 2042.86L211.811 2042.73ZM206.457 2070.92C205.248 2075.68 203.902 2080.28 202.417 2084.71L203.366 2085.03C204.859 2080.57 206.211 2075.95 207.426 2071.17L206.457 2070.92ZM197.282 2098.1C195.33 2102.56 193.206 2106.83 190.904 2110.89L191.774 2111.39C194.094 2107.29 196.233 2102.99 198.198 2098.5L197.282 2098.1ZM183.131 2122.91C180.269 2126.8 177.198 2130.44 173.912 2133.85L174.632 2134.54C177.95 2131.1 181.049 2127.42 183.936 2123.51L183.131 2122.91ZM163.297 2143.43C159.579 2146.34 155.64 2149.01 151.472 2151.44L151.975 2152.3C156.182 2149.85 160.159 2147.16 163.913 2144.22L163.297 2143.43ZM138.663 2157.81C134.36 2159.62 129.853 2161.22 125.136 2162.6L125.416 2163.56C130.168 2162.17 134.712 2160.56 139.051 2158.73L138.663 2157.81ZM111.243 2165.9C106.692 2166.76 101.97 2167.44 97.0753 2167.94L97.1774 2168.94C102.099 2168.43 106.847 2167.75 111.427 2166.89L111.243 2165.9ZM82.7725 2168.89C80.3854 2168.96 77.9614 2169 75.5 2169V2170C77.9716 2170 80.4062 2169.96 82.804 2169.89L82.7725 2168.89Z" fill="#EB3535"/>
</svg>
